<svg width="98" height="84" viewBox="0 0 248 234" fill="none" xmlns="http://www.w3.org/2000/svg">
<path d="M124 117H247.658V232.785H124V117Z" fill="#00CD98"/>
<path d="M124 1H247.658V116.785H124V1Z" fill="#617799"/>
<path d="M3.99106e-05 125C3.99106e-05 56.5167 3.99106e-05 1 3.99106e-05 1C68.4834 1 124 56.5167 124 125C124 125 68.4834 125 3.99106e-05 125Z" fill="#FC5D68"/>
<path d="M0 117H123.658V232.785H0V117Z" fill="#617799"/>
<path d="M123.658 232.785C55.3637 232.785 6.10352e-05 232.785 6.10352e-05 232.785C6.10352e-05 168.839 55.3637 117 123.658 117C123.658 117 123.658 168.839 123.658 232.785Z" fill="white"/>
<path opacity="0.4" d="M247 0V234L123 117L247 0Z" fill="#C4C4C4"/>
</svg>
