<svg width="60" height="60" viewBox="0 0 326 455" fill="none" xmlns="http://www.w3.org/2000/svg">
<path d="M223 28.728L300.593 69.8276L228.773 78.7267L223 28.728Z" fill="#FC5D68"/>
<path d="M215.173 27.1861L221 75.0001L163 16L215.173 27.1861Z" fill="#FF9594"/>
<path d="M154.275 16.409L206 68.0001L98 60L154.275 16.409Z" fill="#FC5D68"/>
<path d="M92.9882 69.4325L194 75.9999L71 132L92.9882 69.4325Z" fill="#FF9594"/>
<path d="M208 79L228 154L79 138L208 79Z" fill="#FC5D68"/>
<path d="M228 163L204 369L80 146L228 163Z" fill="#FF9594"/>
<path d="M236 162L271 193L212 368L236 162Z" fill="#0F6EFF"/>
<path d="M81 162L199 372H141L81 162Z" fill="#0F6EFF"/>
<path d="M71 150L134 369L41 436L71 150Z" fill="#0F6EFF"/>
</svg>
