<svg width="580" height="730" viewBox="-50 0 437 654" fill="none" xmlns="http://www.w3.org/2000/svg">
<rect x="327" y="435" width="108.932" height="108.932" fill="#DEE9F8"/>
<path d="M110 544.932H218.932V653.864H110V544.932Z" fill="#DEE9F8"/>
<path d="M0 109H108.932V217.932H0V109Z" fill="#DEE9F8"/>
<path d="M327 109H435.932V217.932H327V109Z" fill="#FC5D68"/>
<path d="M326 218H434.932V326.932H326V218Z" fill="#617799"/>
<path d="M219 0H327.932V108.932H219V0Z" fill="#FC5D68"/>
<path d="M220 0H273V108H220V0Z" fill="#0F6EFF"/>
<path d="M327 544V491H435V544H327Z" fill="#0F6EFF"/>
<path d="M2 163L2 110H110V163H2Z" fill="#0F6EFF"/>
<path d="M165 544H218V652H165V544Z" fill="#0F6EFF"/>
<path d="M219 108H327.932V216.932H219V108Z" fill="#FC9796"/>
<path d="M217 327H325.932V435.932H217V327Z" fill="#617799"/>
<path d="M109 327H217.932V435.932H109V327Z" fill="#00CD98"/>
<path d="M109 217H217.932V325.932H109V217Z" fill="#617799"/>
<path d="M218 217H326.932V325.932H218V217Z" fill="#00CD98"/>
<path d="M328 0H436.932V108.932H328V0Z" fill="#DEE9F8"/>
<path d="M111 108H219.932V216.932H111V108Z" fill="#FC5D68"/>
<path d="M219 436H327.932V544.932H219V436Z" fill="#FC5D68"/>
<path d="M110 436H218.932V544.932H110V436Z" fill="#FC9796"/>
<rect x="275" y="109" width="53" height="108" fill="white"/>
<path d="M110 436H163V544H110V436Z" fill="white"/>
<path d="M434.932 652.932C374.77 652.932 326 652.932 326 652.932C326 592.77 374.77 544 434.932 544C434.932 544 434.932 592.77 434.932 652.932Z" fill="#FC5D68"/>
<path d="M109 109C169.161 109 217.932 109 217.932 109C217.932 169.161 169.161 217.932 109 217.932C109 217.932 109 169.161 109 109Z" fill="#00CD98"/>
<path d="M327 -2.02656e-06C387.161 -2.02656e-06 435.932 -2.02656e-06 435.932 -2.02656e-06C435.932 60.1613 387.161 108.932 327 108.932C327 108.932 327 60.1613 327 -2.02656e-06Z" fill="#00CD98"/>
<path d="M326 218C386.161 218 434.932 218 434.932 218C434.932 278.161 386.161 326.932 326 326.932C326 326.932 326 278.161 326 218Z" fill="white"/>
<path d="M108.932 435.932C48.7704 435.932 0 435.932 0 435.932C0 375.77 48.7704 327 108.932 327C108.932 327 108.932 375.77 108.932 435.932Z" fill="#0F6EFF"/>
<path d="M327.932 544.932C267.77 544.932 219 544.932 219 544.932C219 484.77 267.77 436 327.932 436C327.932 436 327.932 484.77 327.932 544.932Z" fill="#00CD98"/>
<path d="M110.932 544C110.932 604.161 110.932 652.932 110.932 652.932C50.7704 652.932 2 604.161 2 544C2 544 50.7704 544 110.932 544Z" fill="#00CD98"/>
<path d="M110.932 0C110.932 60.1614 110.932 108.932 110.932 108.932C50.7704 108.932 2 60.1614 2 0C2 0 50.7704 0 110.932 0Z" fill="#FC5D68"/>
<path d="M434.932 326C434.932 386.161 434.932 434.932 434.932 434.932C374.77 434.932 326 386.161 326 326C326 326 374.77 326 434.932 326Z" fill="#FC9796"/>
<path d="M108.932 218C108.932 278.161 108.932 326.932 108.932 326.932C48.7704 326.932 0 278.161 0 218C0 218 48.7704 218 108.932 218Z" fill="#FC9796"/>
<ellipse cx="272.759" cy="598.466" rx="53.7585" ry="54.4659" fill="#FC9796"/>
<ellipse cx="56.7585" cy="490.466" rx="53.7585" ry="54.4659" fill="#FC5D68"/>
<ellipse cx="164.759" cy="54.4659" rx="53.7585" ry="54.4659" fill="#FF9594"/>
<path opacity="0.4" d="M218 218L326 326.5L218 435L110 326.5L218 218Z" fill="#C4C4C4"/>
</svg>
